<svg xmlns="http://www.w3.org/2000/svg" fill="none" viewBox="0 0 39 26"><path fill="#F4E041" d="M28.7788 22.6036c.1381.9942-.2382 1.9437-.9196 2.5388-.1265.1118-.2636.2099-.4097.2942-.1324.0753-.2705.1402-.4166.1915-.3315.1174-.6768.1607-1.0164.1391-.0092 0-.0184 0-.0276-.0023-.6836-.049-1.342-.3591-1.8081-.855-.7561-.8037-.7343-1.8024-.7252-2.011 0-.1004.0047-.1983.0162-.2953H15.254c.0116.097.0162.1949.0162.2953.0092.2086.0311 1.2073-.7251 2.011-.4662.4959-1.1245.806-1.8081.855-.0093.0023-.0185.0023-.0277.0023-.3395.0216-.6848-.0217-1.0162-.1391-.1462-.0513-.2844-.1162-.4167-.1915-.1462-.0843-.2831-.1824-.4098-.293-.0011 0-.0011-.0012-.0011-.0012-.6802-.5962-1.05657-1.5446-.91846-2.5388H6.98682c.01956-.073.04028-.147.05984-.22.3683-1.3555.73661-2.7121 1.10491-4.0677l.2417-.0114 2.82783-.1253c.1278-.0057.2256-.1118.2199-.2372-.0058-.1266-.1105-.2246-.2406-.2177l-2.68169.1185-.24053.0114c.1335-.4947.26816-.9884.40167-1.482l.23364.0194 2.27081.188h.0196c.1185 0 .2198-.09.229-.2086.0104-.1253-.0829-.236-.2095-.2463l-2.18791-.1812-.23364-.0194c.13581-.5004.27163-1.0009.40744-1.5003l.21637.0832 2.15454.8243c.0265.0103.0553.016.0829.016.0921 0 .1795-.0559.2141-.1459.046-.1175-.0127-.2497-.1313-.2953l-2.19939-.8426-.21638-.082C10.5237 9.58778 11.7183 5.19409 12.9119.801514c.8621 2.626646 1.7229 5.253296 2.5838 7.878806.6078-.30553 2.0246-.93141 3.8591-.90291h.0162c1.8345-.0285 3.2514.59738 3.8591.90291.8609-2.62551 1.7218-5.25216 2.5839-7.878806C27.0075 5.19409 28.2022 9.58778 29.3957 13.9815l-.2163.082-2.1995.8426c-.1186.0456-.1784.1778-.1324.2953.0357.09.1232.1459.2153.1459.0276 0 .0552-.0057.0828-.016l2.1546-.8243.2164-.0832c.1357.4994.2716.9999.4074 1.5003l-.2337.0194-2.1879.1812c-.1266.0103-.221.121-.2107.2463.0104.1186.1117.2086.2291.2086h.0196l2.272-.188.2336-.0194c.1336.4936.2681.9873.4017 1.482l-.2406-.0114-2.6828-.1185c-.13-.0047-.2348.0911-.2405.2177-.0059.1254.0932.2315.2198.2372l2.829.1253.2417.0114c.3683 1.3556.7366 2.7122 1.1049 4.0677.0196.073.0403.147.0598.22h-2.9602Z"/><path fill="#000" fill-opacity=".87" d="m32.038 22.8316-.0599-.2189-.0622-.2292-1.1026-4.0574-.2394-.0102-.2416-.0114 1.106 4.071h-2.9246l.0357.2589c.1093.7831-.1255 1.5424-.5962 2.0896-.0898.1049-.1887.2018-.2947.2884-.0321.0274-.0656.0536-.0989.0776-.0691.0524-.1404.0992-.2153.1413-.1231.0719-.2531.1334-.3901.1813-.2279.0809-.465.1242-.7032.1311-.0784.0023-.1566 0-.2348-.0046-.076-.0045-.152-.0137-.2279-.0262-.5387-.0855-1.0531-.3477-1.4398-.7592-.6423-.683-.678-1.5174-.663-1.8549 0-.0991.0046-.187.0138-.2691l.0299-.2542h-8.7345l.0299.2542c.0093.0821.015.17.015.2782.0138.3284-.0219 1.1628-.6642 1.8458-.3866.4115-.9011.6737-1.4386.7592-.0759.0125-.1519.0217-.2279.0262-.0782.0046-.1564.0069-.2348.0046-.2393-.0069-.4764-.0502-.7043-.1311-.1358-.0479-.2659-.1083-.3879-.1801h-.0012c-.0748-.0423-.1473-.0901-.2163-.1425-.0334-.024-.0668-.0502-.099-.0776-.1059-.0866-.2049-.1835-.2947-.2884-.4707-.5472-.7055-1.3065-.5961-2.0896l.0356-.2589H7.28683l1.10606-4.071-.2417.0114-.24055.0102-1.1026 4.0574-.06215.2292-.05985.2189H9.6923c-.07595 1.3395.7021 2.5799 1.9221 3.0108 1.0624.3762 2.3076.0639 3.0984-.7775.7607-.8095.8033-1.7921.7872-2.1661 0-.0228-.0011-.0456-.0011-.0672h7.7263v.057c-.0173.3842.0252 1.3668.7861 2.1763.5685.6042 1.3695.9348 2.1694.9348.3143 0 .6285-.0513.9289-.1573 1.22-.4309 1.998-1.6713 1.9221-3.0108h3.0063ZM8.67947 16.372l-.23364-.0193-.40973 1.5117.2417-.0103.24055-.0113.39476-1.4514-.23364-.0194ZM25.8344 0l-.2407.730765c-.7181 2.191145-1.4374 4.382315-2.1556 6.572325l-.3464 1.05681c-.8759-.40813-2.1743-.83793-3.7211-.81057h-.0126c-1.5515-.02507-2.8498.40244-3.7256.81057l-.3465-1.05681c-.7182-2.19001-1.4364-4.38118-2.1557-6.572325L12.8897 0 9.11338 13.8982l.21639.0833.21637.082L12.9322 1.60176c.6388 1.94831 1.2776 3.89551 1.9152 5.84269l.5122 1.55957.2394-.12085c.824-.41497 2.1488-.90746 3.7555-.87782h.0195c1.6114-.02736 2.9269.46285 3.751.87782l.2405.12085.5111-1.55957c.6376-1.94718 1.2763-3.89438 1.9163-5.84269l3.386 12.46174.2164-.082.2153-.0833L25.8344 0ZM8.99253 14.3406l-.4247 1.564.23364.0194.23364.0194.39018-1.4364-.21638-.0832-.21638-.0832Zm20.73887.001-.2152.0822-.2164.0832.3902 1.4364.2336-.0194.2326-.0182-.4248-1.5642Zm.5467 2.0111-.2324.0193-.2338.0194.3949 1.4514.2405.0113.2405.0103-.4097-1.5117Z"/><path fill="#000" fill-opacity=".87" d="M21.1869 14.9493c-.2705 0-.4891-.2167-.4891-.4846V11.528c0-.2679.2186-.4845.4891-.4845.2704 0 .4891.2166.4891.4845v2.9367c0 .2668-.2187.4846-.4891.4846Zm-3.3612-.5128c-.2682.0284-.5099-.1643-.5387-.431l-.2383-2.2162c-.0287-.2657.1658-.5051.4351-.5336.2682-.0285.5099.1642.5387.431l.2382 2.2162c.0288.2667-.1657.505-.435.5336Zm-5.9509.7648c-.0345.0901-.122.1459-.2141.1459-.0276 0-.0564-.0056-.0829-.0159l-2.15451-.8243-.21639-.0832-.21638-.0832-3.13057-1.1982c-.1197-.0456-.17839-.1778-.13236-.2953.04604-.1174.17955-.1755.2981-.1299l3.08569 1.181.21638.0832.21637.0821 2.19947.8426c.1185.0456.1772.1778.1312.2952Zm-.4443 1.1695c-.0092.1186-.1104.2087-.229.2087h-.0196l-2.27078-.1881-.23364-.0194-.23364-.0194-3.37111-.2793c-.12661-.0103-.22099-.1208-.20947-.2463.01034-.1253.11969-.2189.24859-.2074l3.45399.285.23364.0193.23364.0194 2.18798.1813c.1266.0102.2198.1209.2094.2462Zm.0086 1.5714c.0058.1255-.0921.2314-.2198.2371l-2.82788.1254-.2417.0115-.24055.0102-2.81407.1255h-.01036c-.122 0-.22442-.0959-.22903-.2178-.00575-.1266.09208-.2326.21867-.2383l2.96024-.1311.24169-.0102.24056-.0114 2.68173-.1186c.13-.0069.2348.0912.2405.2177Zm21.4225-4.7998-3.1317 1.1993-.2153.0821-.2163.0832-2.1546.8243c-.0276.0103-.0553.0159-.0829.0159-.092 0-.1796-.0558-.2152-.1459-.046-.1174.0138-.2496.1323-.2952l2.1995-.8426.2165-.0821.2151-.0832 3.0868-1.181c.1174-.0456.2521.0125.2982.1299.0449.1175-.0138.2497-.1324.2953Zm.9953 2.6849c.0103.1254-.0841.236-.2107.2462l-3.3711.2794-.2325.0194-.2337.0193-2.2719.1881h-.0196c-.1174 0-.2186-.09-.229-.2086-.0104-.1254.0841-.236.2106-.2463l2.188-.1812.2336-.0194.2325-.0182 3.4551-.2862c.1266-.0126.2383.082.2487.2075Zm.0083 2.4065c-.0059.122-.1071.2178-.2303.2178h-.0104l-2.814-.1254-.2394-.0103-.2416-.0114-2.8291-.1253c-.1266-.0058-.2256-.1118-.2199-.2372.0059-.1266.1105-.2224.2406-.2177l2.6829.1185.2405.0114.2405.0103 2.9603.131c.1277.0057.2256.1118.2199.2383Z"/><path fill="#fff" d="M25.9209 23.5796c.0878.2508.164.5564.1884.9064.0288.4116-.0232.7695-.0948 1.0533l-.0936-1.9597Z"/><path fill="#000" fill-opacity=".87" d="M26.0155 25.7672c-.0184 0-.0369-.0023-.0552-.0068-.1231-.0298-.1991-.154-.168-.2759.0805-.325.1105-.6556.0874-.9828-.0196-.2839-.0794-.5689-.1761-.8471-.0415-.1185.0219-.2485.1427-.2895.1209-.0411.2509.0216.2923.1414.1105.3157.1773.6406.2003.9644.0265.3751-.0081.7524-.1001 1.1241-.0265.1026-.1209.1722-.2233.1722Z"/><path fill="#fff" d="M27.4219 23.4893c.141.2246.2636.4981.3018.8116.0462.3683-.037.6887-.1515.944l-.1503-1.7556Z"/><path fill="#000" fill-opacity=".87" d="M27.5718 25.4718c-.0311 0-.0622-.0068-.0933-.0194-.1163-.0513-.1692-.1858-.1174-.3009.122-.2736.1658-.5507.1323-.8243-.0299-.2394-.1196-.4811-.2681-.7194-.0667-.1071-.0334-.2474.0748-.3135.1082-.0661.2498-.033.3166.0741.1841.2941.2957.5986.3337.9041.0437.3557-.0127.7137-.1681 1.0636-.038.0856-.1219.1357-.2105.1357Z"/><path fill="#fff" d="M12.803 23.5796c-.0878.2508-.1641.5564-.1884.9064-.0289.4116.0231.7695.0947 1.0533l.0937-1.9597Z"/><path fill="#000" fill-opacity=".87" d="M12.707 25.7673c-.1034 0-.1967-.0697-.2232-.1733-.0921-.3705-.1266-.749-.1002-1.1242.0219-.3248.0898-.6487.2003-.9644.0415-.1186.1727-.1825.2923-.1414.1198.041.1842.171.1428.2896-.0967.2781-.1566.562-.1761.847-.023.3272.0069.6579.0875.9828.0299.122-.0449.2462-.168.2759-.0185.0057-.0369.008-.0554.008Z"/><path fill="#fff" d="M11.302 23.4893c-.141.2246-.2635.4981-.3017.8116-.0462.3683.037.6887.1514.944l.1503-1.7556Z"/><path fill="#000" fill-opacity=".87" d="M11.1508 25.4718c-.0886 0-.1727-.0513-.2106-.1357-.1554-.3489-.213-.7068-.1681-1.0636.038-.3055.1496-.6088.3338-.9041.0668-.1071.2083-.1402.3165-.0741.1082.0661.1416.2064.0748.3135-.1485.2372-.2382.48-.2682.7194-.0333.2736.0104.5507.1324.8243.0518.1151-.0011.2496-.1174.3009-.0311.0137-.0621.0194-.0932.0194Zm-2.79552-2.6733H.244843C.11018 22.7985 0 22.7111 0 22.6045c0-.1068.11018-.1941.244843-.1941H8.35528c.13466 0 .24484.0873.24484.1941 0 .1066-.11018.194-.24484.194Zm29.52932.041h-7.6251c-.1266 0-.2302-.1025-.2302-.228 0-.1253.1036-.228.2302-.228h7.6251c.1266 0 .2301.1027.2301.228 0 .1255-.1024.228-.2301.228Zm-16.1801-4.1951c-.1658.4263-.5491.888-1.0359.9577-.45.0626-.8644-.1757-1.1624-.5462-.0288.0786-.0645.1596-.1105.2405-.0749.1324-.4765.7866-1.1464.7866h-.0184c-.6376-.0113-1.1911-.587-1.2878-1.3406-.015-.1254.0736-.2394.2001-.2543.1244-.0159.2418.073.2568.1973.0737.5814.4845.9359.8389.9417h.0093c.4224 0 .7136-.4959.7458-.5529.1588-.2828.1553-.5724.1266-.7627-.0103-.0353-.0196-.0707-.0288-.106-.443.0513-.8252-.1026-.8954-.3832-.0794-.3191.2763-.6816.7953-.8093.5202-.1277 1.0059.0273 1.0853.3466.0668.2633-.1623.5551-.5352.7216.0115.0421.0219.0924.0311.147.1864.6134.663.9725 1.0312.9223.2855-.0411.5536-.3683.6699-.6692.099-.2554.0852-.4959.0564-.6521-.0218-.1242.061-.2428.1853-.2656.1266-.0217.2451.0604.2682.1835.0392.2144.0575.5427-.0794.8973Z"/></svg>