<svg xmlns="http://www.w3.org/2000/svg" fill="none" viewBox="0 0 104 26"><path fill="#F4E041" d="M28.7786 22.6036c.1381.9942-.2382 1.9437-.9196 2.5388-.1266.1118-.2636.2099-.4098.2942-.1323.0753-.2704.1402-.4166.1915-.3314.1174-.6767.1607-1.0163.1391-.0092 0-.0184 0-.0276-.0023-.6836-.049-1.342-.3591-1.8081-.855-.7562-.8037-.7343-1.8024-.7252-2.011 0-.1004.0047-.1983.0162-.2953h-8.2178c.0116.097.0161.1949.0161.2953.0093.2086.0312 1.2073-.725 2.011-.4662.4959-1.1245.806-1.8081.855-.0093.0023-.0185.0023-.0278.0023-.3394.0216-.6847-.0217-1.0161-.1391-.1463-.0513-.2844-.1162-.4167-.1915-.1462-.0843-.2832-.1824-.4098-.293-.0011 0-.0011-.0012-.0011-.0012-.6802-.5962-1.05659-1.5446-.91847-2.5388H6.9866c.01956-.073.04028-.147.05985-.22.3683-1.3555.7366-2.7121 1.10491-4.0677l.24169-.0114 2.82785-.1253c.1278-.0057.2256-.1118.2199-.2372-.0058-.1266-.1105-.2246-.2406-.2177l-2.6817.1185-.24054.0114c.13351-.4947.26817-.9884.40168-1.482l.23364.0194 2.27082.188h.0196c.1185 0 .2198-.09.229-.2086.0104-.1253-.0829-.236-.2095-.2463l-2.18792-.1812-.23364-.0194c.1358-.5004.27163-1.0009.40743-1.5003l.21637.0832 2.15456.8243c.0265.0103.0553.016.0829.016.092 0 .1795-.0559.2141-.1459.046-.1175-.0127-.2497-.1313-.2953l-2.1994-.8426-.21638-.082C10.5235 9.58778 11.7181 5.19409 12.9117.801514c.8621 2.626646 1.7229 5.253296 2.5838 7.878806.6078-.30553 2.0246-.93141 3.8591-.90291h.0162c1.8345-.0285 3.2514.59738 3.8591.90291.8609-2.62551 1.7218-5.25216 2.5839-7.878806C27.0073 5.19409 28.202 9.58778 29.3955 13.9815l-.2163.082-2.1995.8426c-.1186.0456-.1785.1778-.1324.2953.0357.09.1231.1459.2153.1459.0276 0 .0552-.0057.0828-.016l2.1545-.8243.2165-.0832c.1357.4994.2716.9999.4073 1.5003l-.2336.0194-2.1879.1812c-.1266.0103-.221.121-.2107.2463.0104.1186.1117.2086.2291.2086h.0196l2.272-.188.2336-.0194c.1335.4936.2681.9873.4016 1.482l-.2405-.0114-2.6828-.1185c-.13-.0047-.2348.0911-.2405.2177-.0059.1254.0932.2315.2198.2372l2.829.1253.2417.0114c.3683 1.3556.7366 2.7122 1.1049 4.0677.0196.073.0402.147.0598.22h-2.9602Z"/><path fill="#000" fill-opacity=".87" d="m32.0381 22.8316-.0598-.2189-.0622-.2292-1.1026-4.0574-.2394-.0102-.2417-.0114 1.106 4.071h-2.9245l.0357.2589c.1093.7831-.1255 1.5424-.5962 2.0896-.0898.1049-.1888.2018-.2947.2884-.0321.0274-.0656.0536-.0989.0776-.0691.0524-.1404.0992-.2153.1413-.1231.0719-.2531.1334-.3902.1813-.2278.0809-.465.1242-.7031.1311-.0784.0023-.1566 0-.2348-.0046-.076-.0045-.152-.0137-.2279-.0262-.5387-.0855-1.0532-.3477-1.4398-.7592-.6423-.683-.678-1.5174-.663-1.8549 0-.0991.0046-.187.0138-.2691l.0299-.2542h-8.7345l.0299.2542c.0092.0821.015.17.015.2782.0138.3284-.0219 1.1628-.6642 1.8458-.3866.4115-.9011.6737-1.4386.7592-.0759.0125-.1519.0217-.2279.0262-.0782.0046-.1565.0069-.2348.0046-.2393-.0069-.4765-.0502-.7044-.1311-.1358-.0479-.2658-.1083-.3878-.1801h-.0012c-.0748-.0423-.1473-.0901-.2163-.1425-.0334-.024-.0668-.0502-.099-.0776-.1059-.0866-.2049-.1835-.2947-.2884-.4707-.5472-.7055-1.3065-.5962-2.0896l.0357-.2589H7.28702l1.10605-4.071-.24169.0114-.24056.0102-1.1026 4.0574-.06215.2292-.05985.2189h3.00627c-.07596 1.3395.70211 2.5799 1.92211 3.0108 1.0623.3762 2.3076.0639 3.0984-.7775.7607-.8095.8032-1.7921.7872-2.1661 0-.0228-.0012-.0456-.0012-.0672h7.7264v.057c-.0173.3842.0252 1.3668.7861 2.1763.5684.6042 1.3695.9348 2.1694.9348.3143 0 .6285-.0513.9288-.1573 1.22-.4309 1.9981-1.6713 1.9222-3.0108h3.0062ZM8.67966 16.372l-.23364-.0193-.40973 1.5117.24169-.0103.24055-.0113.39477-1.4514-.23364-.0194ZM25.8346 0l-.2407.730765c-.7181 2.191145-1.4375 4.382315-2.1556 6.572325l-.3465 1.05681c-.8759-.40813-2.1742-.83793-3.721-.81057h-.0126c-1.5515-.02507-2.8498.40244-3.7256.81057l-.3465-1.05681c-.7182-2.19001-1.4364-4.38118-2.1557-6.572325L12.8899 0 9.11357 13.8982l.21638.0833.21637.082L12.9324 1.60176c.6388 1.94831 1.2775 3.89551 1.9151 5.84269l.5123 1.55957.2393-.12085c.8241-.41497 2.1489-.90746 3.7556-.87782h.0195c1.6113-.02736 2.9269.46285 3.751.87782l.2405.12085.5111-1.55957c.6376-1.94718 1.2763-3.89438 1.9162-5.84269l3.3861 12.46174.2164-.082.2153-.0833L25.8346 0ZM8.99271 14.3406l-.42469 1.564.23364.0194.23364.0194.39018-1.4364-.21639-.0832-.21638-.0832Zm20.73889.001-.2152.0822-.2164.0832.3902 1.4364.2336-.0194.2326-.0182-.4248-1.5642Zm.5467 2.0111-.2324.0193-.2338.0194.3949 1.4514.2405.0113.2405.0103-.4097-1.5117Z"/><path fill="#000" fill-opacity=".87" d="M21.1868 14.9493c-.2705 0-.4891-.2167-.4891-.4846V11.528c0-.2679.2186-.4845.4891-.4845.2704 0 .4891.2166.4891.4845v2.9367c0 .2668-.2187.4846-.4891.4846Zm-3.3612-.5128c-.2683.0284-.5099-.1643-.5387-.431l-.2383-2.2162c-.0288-.2657.1658-.5051.4351-.5336.2682-.0285.5099.1642.5387.431l.2381 2.2162c.0289.2667-.1657.505-.4349.5336Zm-5.9506.7648c-.0345.0901-.122.1459-.2141.1459-.0276 0-.0564-.0056-.0828-.0159l-2.1546-.8243-.21638-.0832-.21639-.0832-3.13057-1.1982c-.11969-.0456-.17839-.1778-.13236-.2953.04605-.1174.17955-.1755.2981-.1299l3.08569 1.181.21638.0832.21637.0821 2.19946.8426c.1186.0456.1772.1778.1312.2952Zm-.4445 1.1695c-.0092.1186-.1104.2087-.229.2087h-.0196l-2.27078-.1881-.23364-.0194-.23364-.0194-3.37111-.2793c-.12661-.0103-.22099-.1208-.20947-.2463.01034-.1253.11969-.2189.24859-.2074l3.45399.285.23364.0193.23364.0194 2.18798.1813c.1266.0102.2198.1209.2094.2462Zm.0084 1.5714c.0058.1255-.0921.2314-.2198.2371l-2.8279.1254-.24169.0115-.24055.0102-2.81407.1255h-.01036c-.122 0-.22443-.0959-.22903-.2178-.00576-.1266.09207-.2326.21867-.2383l2.96023-.1311.2417-.0102.24055-.0114 2.68175-.1186c.13-.0069.2347.0912.2405.2177Zm21.4225-4.7998-3.1317 1.1993-.2153.0821-.2163.0832-2.1546.8243c-.0276.0103-.0553.0159-.0829.0159-.092 0-.1796-.0558-.2152-.1459-.046-.1174.0138-.2496.1323-.2952l2.1995-.8426.2164-.0821.2152-.0832 3.0868-1.181c.1174-.0456.2521.0125.2982.1299.0449.1175-.0138.2497-.1324.2953Zm.9953 2.6849c.0103.1254-.084.236-.2107.2462l-3.3711.2794-.2325.0194-.2336.0193-2.272.1881h-.0195c-.1174 0-.2187-.09-.2291-.2086-.0104-.1254.0841-.236.2106-.2463l2.188-.1812.2336-.0194.2325-.0182 3.4551-.2862c.1267-.0126.2383.082.2487.2075Zm.0083 2.4065c-.0059.122-.1071.2178-.2302.2178h-.0105l-2.814-.1254-.2393-.0103-.2417-.0114-2.829-.1253c-.1267-.0058-.2257-.1118-.22-.2372.0059-.1266.1105-.2224.2407-.2177l2.6828.1185.2405.0114.2405.0103 2.9604.131c.1276.0057.2255.1118.2198.2383Z"/><path fill="#fff" d="M25.9208 23.5796c.0879.2508.1641.5564.1884.9064.0289.4116-.0231.7695-.0948 1.0533l-.0936-1.9597Z"/><path fill="#000" fill-opacity=".87" d="M26.0154 25.7672c-.0184 0-.0369-.0023-.0552-.0068-.1231-.0298-.1991-.154-.168-.2759.0805-.325.1105-.6556.0874-.9828-.0196-.2839-.0794-.5689-.1761-.8471-.0415-.1185.0219-.2485.1427-.2895.1209-.0411.2509.0216.2923.1414.1105.3157.1773.6406.2003.9644.0265.3751-.0081.7524-.1001 1.1241-.0265.1026-.1209.1722-.2233.1722Z"/><path fill="#fff" d="M27.4217 23.4893c.141.2246.2636.4981.3017.8116.0463.3683-.0369.6887-.1514.944l-.1503-1.7556Z"/><path fill="#000" fill-opacity=".87" d="M27.5715 25.4718c-.0311 0-.0622-.0068-.0933-.0194-.1162-.0513-.1692-.1858-.1174-.3009.1221-.2736.1658-.5507.1324-.8243-.03-.2394-.1196-.4811-.2681-.7194-.0668-.1071-.0335-.2474.0748-.3135.1082-.0661.2498-.033.3165.0741.1842.2941.2957.5986.3337.9041.0438.3557-.0126.7137-.168 1.0636-.038.0856-.122.1357-.2106.1357Z"/><path fill="#fff" d="M12.803 23.5796c-.0878.2508-.1642.5564-.1885.9064-.0288.4116.0232.7695.0948 1.0533l.0937-1.9597Z"/><path fill="#000" fill-opacity=".87" d="M12.707 25.7673c-.1035 0-.1968-.0697-.2232-.1733-.0922-.3705-.1267-.749-.1002-1.1242.0218-.3248.0898-.6487.2003-.9644.0415-.1186.1727-.1825.2923-.1414.1197.041.1841.171.1427.2896-.0967.2781-.1565.562-.176.847-.0231.3272.0069.6579.0874.9828.0299.122-.0449.2462-.168.2759-.0185.0057-.0368.008-.0553.008Z"/><path fill="#fff" d="M11.3021 23.4893c-.141.2246-.2635.4981-.3017.8116-.0462.3683.037.6887.1514.944l.1503-1.7556Z"/><path fill="#000" fill-opacity=".87" d="M11.1509 25.4718c-.0887 0-.1727-.0513-.2107-.1357-.1553-.3489-.2129-.7068-.168-1.0636.038-.3055.1496-.6088.3338-.9041.0667-.1071.2083-.1402.3165-.0741.1082.0661.1416.2064.0748.3135-.1485.2372-.2382.48-.2682.7194-.0333.2736.0104.5507.1324.8243.0518.1151-.0011.2496-.1174.3009-.0311.0137-.0622.0194-.0932.0194Zm-2.79562-2.6733H.244843C.11018 22.7985 0 22.7111 0 22.6045c0-.1068.11018-.1941.244843-.1941H8.35528c.13466 0 .24484.0873.24484.1941 0 .1066-.11018.194-.24484.194Zm29.52912.041h-7.6251c-.1266 0-.2302-.1025-.2302-.228 0-.1253.1036-.228.2302-.228h7.6251c.1266 0 .2301.1027.2301.228 0 .1255-.1024.228-.2301.228Zm-16.1801-4.1951c-.1658.4263-.549.888-1.0358.9577-.4501.0626-.8644-.1757-1.1625-.5462-.0287.0786-.0644.1596-.1105.2405-.0748.1324-.4764.7866-1.1463.7866h-.0185c-.6376-.0113-1.1911-.587-1.2878-1.3406-.015-.1254.0737-.2394.2002-.2543.1244-.0159.2418.073.2567.1973.0737.5814.4846.9359.839.9417h.0092c.4225 0 .7136-.4959.7459-.5529.1588-.2828.1553-.5724.1265-.7627-.0103-.0353-.0195-.0707-.0288-.106-.443.0513-.8251-.1026-.8954-.3832-.0794-.3191.2763-.6816.7953-.8093.5203-.1277 1.006.0273 1.0854.3466.0667.2633-.1623.5551-.5352.7216.0114.0421.0218.0924.0311.147.1864.6134.663.9725 1.0312.9223.2855-.0411.5536-.3683.6698-.6692.0991-.2554.0853-.4959.0565-.6521-.0219-.1242.0609-.2428.1852-.2656.1266-.0217.2452.0604.2682.1835.0392.2144.0576.5427-.0794.8973Zm22.1026-.0564c-.3935 0-.5902-.1084-.5902-.3252V9.33509h-2.8329c-.0984 0-.1721-.03449-.2213-.10347-.0492-.06898-.0738-.1823-.0738-.33996v-.2365c0-.15766.0246-.27098.0738-.33996.0492-.06898.1229-.10347.2213-.10347h6.9199c.1082 0 .182.03449.2213.10347.0492.06898.0738.1823.0738.33996v.2365c0 .15766-.0246.27098-.0738.33996-.0393.06898-.1131.10347-.2213.10347h-2.7886v8.92771c0 .2168-.1967.3252-.5902.3252h-.118Zm5.973-.0296c-.1573 0-.2705-.0345-.3393-.1034-.0689-.069-.1033-.1823-.1033-.34V8.65516c0-.15766.0344-.27098.1033-.33996.0688-.06898.182-.10347.3393-.10347h5.1494c.1082 0 .1819.03449.2213.10347.0492.06898.0738.1823.0738.33996v.2365c0 .15766-.0246.27098-.0738.33996-.0394.06898-.1131.10347-.2213.10347h-4.2936v3.37011h3.8509c.1082 0 .182.0344.2214.1034.0491.069.0737.1823.0737.34v.2365c0 .1576-.0246.271-.0737.3399-.0394.069-.1132.1035-.2214.1035h-3.8509v3.6066h4.3084c.1081 0 .1819.0345.2213.1034.0491.069.0738.1823.0738.34v.2365c0 .1577-.0247.271-.0738.34-.0394.0689-.1132.1034-.2213.1034h-5.1642Zm9.7661.0887c-.5902 0-1.1361-.069-1.6377-.2069-.5017-.138-.8804-.3055-1.1361-.5026-.187-.1379-.2804-.2611-.2804-.3695 0-.1182.0639-.2808.1918-.4878.1377-.2069.2458-.3104.3246-.3104.0393 0 .1426.0493.3099.1478.3048.1675.6294.3104.9738.4287.3541.1182.7721.1774 1.2541.1774.5704 0 1.0328-.1577 1.387-.473.3638-.3252.5459-.7489.5459-1.2712 0-.3646-.0984-.6651-.2951-.9016-.1968-.2464-.4378-.4385-.723-.5765-.2755-.1478-.6787-.3252-1.2099-.5321-.5705-.2267-1.0231-.4336-1.3574-.6208-.3345-.1872-.6197-.4631-.8558-.8278-.236-.3744-.3541-.8622-.3541-1.4633 0-.5321.1328-1.00508.3984-1.41894.2753-.41387.6589-.73413 1.1509-.96077.5016-.23649 1.0771-.35474 1.7263-.35474.3343 0 .7082.04927 1.1213.14781.4131.08868.7327.21186.959.36952.1967.11825.2951.24635.2951.38431 0 .10839-.064.26606-.1918.47299-.118.20693-.2116.3104-.2803.3104-.0493 0-.1231-.02464-.2213-.0739-.0886-.04927-.1476-.08377-.1771-.10347-.4919-.25621-1.0033-.38431-1.5345-.38431-.5705 0-1.0328.14781-1.3869.44343-.3444.29562-.5164.70457-.5164 1.22687 0 .335.0835.606.2508.8129.1771.2069.3738.3646.5902.473.2262.0985.6147.2562 1.1656.473.5902.2266 1.0721.4483 1.446.6651.3737.207.6884.5124.9443.9165.2655.3941.3983.9016.3983 1.5224 0 .8869-.2951 1.5865-.8852 2.0989-.5902.5124-1.387.7686-2.3903.7686Zm7.7904-.0591c-.3935 0-.5901-.1084-.5901-.3252V9.33509h-2.8329c-.0984 0-.1722-.03449-.2213-.10347-.0493-.06898-.0738-.1823-.0738-.33996v-.2365c0-.15766.0245-.27098.0738-.33996.0491-.06898.1229-.10347.2213-.10347h6.9199c.1081 0 .1819.03449.2213.10347.0491.06898.0738.1823.0738.33996v.2365c0 .15766-.0247.27098-.0738.33996-.0394.06898-.1132.10347-.2213.10347h-2.7886v8.92771c0 .2168-.1969.3252-.5902.3252h-.1181Zm8.0977 0c-.3934 0-.5902-.1084-.5902-.3252V9.33509H72.011c-.0983 0-.172-.03449-.2213-.10347-.0492-.06898-.0738-.1823-.0738-.33996v-.2365c0-.15766.0246-.27098.0738-.33996.0493-.06898.123-.10347.2213-.10347h6.9199c.1083 0 .1821.03449.2213.10347.0493.06898.0738.1823.0738.33996v.2365c0 .15766-.0245.27098-.0738.33996-.0392.06898-.113.10347-.2213.10347h-2.7886v8.92771c0 .2168-.1967.3252-.5902.3252h-.118Zm4.3052 0c-.4229 0-.6345-.0838-.6345-.2513 0-.0493.0148-.1182.0443-.2069l3.4968-9.71113c.0591-.15767.2559-.2365.5902-.2365h.4279c.3541 0 .5509.07883.5902.2365l3.4968 9.72593c.0295.0689.0443.133.0443.1921 0 .1675-.2114.2513-.6345.2513h-.118c-.3442 0-.5409-.0788-.5902-.2365l-.8705-2.4241h-4.3378l-.8411 2.4241c-.0491.1577-.2458.2365-.5901.2365h-.0738Zm5.4444-3.7839-1.5492-4.4048c-.0491-.1576-.1082-.44341-.1771-.85728h-.0295c-.0786.39417-.1524.67988-.2213.85728l-1.5492 4.4048h3.5263Zm6.393 3.843c-.5901 0-1.1361-.069-1.6377-.2069-.5017-.138-.8804-.3055-1.1361-.5026-.187-.1379-.2804-.2611-.2804-.3695 0-.1182.0639-.2808.1919-.4878.1376-.2069.2458-.3104.3246-.3104.0392 0 .1425.0493.3098.1478.3048.1675.6294.3104.9738.4287.3541.1182.7721.1774 1.2541.1774.5705 0 1.0329-.1577 1.387-.473.3638-.3252.5459-.7489.5459-1.2712 0-.3646-.0984-.6651-.2951-.9016-.1968-.2464-.4378-.4385-.723-.5765-.2754-.1478-.6787-.3252-1.2098-.5321-.5706-.2267-1.0231-.4336-1.3576-.6208-.3344-.1872-.6196-.4631-.8556-.8278-.2361-.3744-.3541-.8622-.3541-1.4633 0-.5321.1327-1.00508.3983-1.41894.2754-.41387.659-.73413 1.1509-.96077.5016-.23649 1.0771-.35474 1.7263-.35474.3343 0 .7082.04927 1.1213.14781.4131.08868.7327.21186.9591.36952.1966.11825.2951.24635.2951.38431 0 .10839-.0641.26606-.1919.47299-.118.20693-.2115.3104-.2803.3104-.0493 0-.123-.02464-.2213-.0739-.0885-.04927-.1475-.08377-.1771-.10347-.4919-.25621-1.0033-.38431-1.5344-.38431-.5706 0-1.0329.14781-1.387.44343-.3443.29562-.5164.70457-.5164 1.22687 0 .335.0835.606.2508.8129.1771.2069.3738.3646.5902.473.2262.0985.6147.2562 1.1656.473.5902.2266 1.0721.4483 1.446.6651.3737.207.6884.5124.9443.9165.2656.3941.3984.9016.3984 1.5224 0 .8869-.2951 1.5865-.8853 2.0989-.5902.5124-1.3869.7686-2.3903.7686Zm5.7986-.0591c-.3935 0-.5902-.1084-.5902-.3252V8.50735c0-.21679.1967-.32518.5902-.32518h.118c.3934 0 .5902.10839.5902.32518v4.52295h.059l3.6295-4.64119c.108-.13796.374-.20694.797-.20694h.147c.168 0 .296.01971.384.05913.089.02956.133.0739.133.13302 0 .08869-.049.18723-.148.29562l-3.6883 4.61166 4.4703 4.863c.089.0985.133.1773.133.2365 0 .0788-.049.133-.147.1625-.099.0296-.266.0444-.502.0444h-.177c-.217 0-.389-.0099-.517-.0296-.118-.0197-.216-.0739-.295-.1626l-4.2195-4.7594h-.059v4.6264c0 .2168-.1968.3252-.5902.3252h-.118Z"/></svg>