<svg xmlns="http://www.w3.org/2000/svg" fill="none" viewBox="0 0 70 70"><circle cx="35" cy="35" r="35" fill="#fff"/><path fill="#D0CFCF" d="M34.9524 70C15.6305 70.0018-.075324 54.2415.000272 34.9298.077667 15.5786 15.7241-.034143 35.0046.000056 54.3588.036055 69.944 15.593 69.9998 34.937 70.0574 54.3045 54.3678 70 34.9524 70ZM11.2442 57.5552c12.9052 13.766 34.9161 13.5104 47.4703.009-.2646-.306-.5165-.6336-.8063-.9252-1.3068-1.314-2.8547-2.3021-4.5268-3.0473-2.185-.9738-4.4367-1.8-6.6434-2.7251-1.0457-.4392-2.0914-.9018-3.0742-1.4634-1.1213-.639-1.8485-1.6001-1.8809-2.9717-.0252-1.107-.0612-2.2157-.1116-3.3227-.0341-.72.162-1.3374.6102-1.9152 1.7027-2.2049 2.5901-4.7086 2.6063-7.5021.0018-.4392.1853-.7056.5165-.9666.738-.585 1.3931-1.2744 1.5911-2.2265.2124-1.0224.3636-2.0628.4608-3.1049.0792-.8478-.0126-1.6758-1.0907-1.764.1512-1.2798.3509-2.4623.4211-3.6503.1404-2.4263-.1224-4.7968-1.3445-6.964-1.0529-1.8665-2.6404-2.8907-4.8111-2.9735-.288-.0108-.5831-.099-.8585-.1944-2.7503-.945-5.5905-1.2348-8.4217-.6696-5.5113 1.098-8.8087 5.8355-8.1463 11.4747.1152.9738.3005 1.9385.4643 2.9825-.7559.0396-1.2005.4752-1.1861 1.1952.0396 2.1401.0792 4.3036 1.9727 5.8138.4734.378.594.8532.6426 1.4112.0683.8009.1601 1.6037.2879 2.3975.2988 1.8647 1.386 3.3533 2.3615 4.8994.2412.3834.4374.8658.4554 1.3104.0486 1.2258 0 2.4551-.027 3.6827-.027 1.2312-.5922 2.1815-1.5983 2.8637-.4698.3186-.9504.6408-1.4687.8604-1.2384.5274-2.4965 1.0134-3.7564 1.4867-2.6099.9828-5.1945 2.016-7.5146 3.6035-.9719.6642-1.8701 1.404-2.5936 2.3958Z"/></svg>