<svg xmlns="http://www.w3.org/2000/svg" fill="none" viewBox="0 0 328 290"><path fill="#EBEBEB" d="M321.927 267.839h-25.843v.194h25.843v-.194Zm-92.603 2.106h-6.781v.194h6.781v-.194Zm65.98-9.324H280.33v.194h14.974v-.194Zm-249.7908 1.305H11.813v.194h33.7002v-.194Zm11.8918 0h-4.9392v.194h4.9392v-.194Zm89.154 3.279H73.4629v.194h73.0961v-.194Z"/><path fill="#E5F7FF" d="M156.106 25.2336c-11.345 12.5491-16.963 29.6439-16.003 46.5055.959 16.8617 7.202 33.0089 14.801 48.1059 6.656 13.225 14.607 28.222 9.161 41.983-3.043 7.693-9.98 13.389-17.65 16.559-7.67 3.17-16.081 4.087-24.376 4.499-14.138.707-28.4877.062-42.244 3.365-13.7563 3.302-27.3019 11.461-32.6234 24.523-6.2656 15.393.8505 33.809 13.3974 44.741 12.5547 10.933 29.393 15.627 45.911 17.95 23.144 3.248 46.856 2.432 69.718-2.393 18.36-3.878 36.424-10.475 51.405-21.734 14.973-11.259 26.662-27.546 29.869-45.962 3.199-18.415-3.012-38.781-17.666-50.452-6.094-4.857-13.444-8.175-18.789-13.839-5.345-5.665-8.06-15.098-3.097-21.097 3.277-3.963 8.801-5.175 13.92-5.789 25.179-2.991 53.074 2.176 74.134-11.896 12.055-8.058 19.858-21.7959 21.575-36.1555 1.716-14.3596-1.397-29.9003-10.48-41.1828-24.758-30.71617-130.641-31.26786-160.963 2.2689Z"/><path fill="#E5F7FF" d="M165.949 290c83.554 0 151.288-3.938 151.288-8.796 0-4.858-67.734-8.796-151.288-8.796-83.5539 0-151.2879 3.938-151.2879 8.796 0 4.858 67.734 8.796 151.2879 8.796Z"/><path fill="#00BDD3" d="m153.521 157.896 1.95-11.212 3.831 1.111-5.781 10.101Zm1.287 3.582 10.971-3.155-1.522-3.675-9.449 6.83Zm1.951-4.211 6.25-11.772 4.205 2.914-10.455 8.858ZM53.5041 174.921h-4.9392c-.2184 0-.3901-.171-.3901-.389s.1717-.388.3901-.388h4.9392c.2185 0 .3901.17.3901.388s-.1716.389-.3901.389Zm-8.2239 0H20.522c-.2185 0-.3902-.171-.3902-.389s.1717-.388.3902-.388h24.7504c.2184 0 .3901.17.3901.388s-.1717.389-.3823.389Zm87.7808 44.96c-.094 0-.188-.031-.266-.101-.156-.148-.171-.389-.023-.552l2.309-2.502c.149-.155.391-.163.554-.023.156.147.172.388.024.551l-2.31 2.503c-.078.085-.179.124-.288.124Zm-21.154 19.915c-.14 0-.281-.078-.351-.21-.093-.194-.023-.427.172-.521 7.233-3.644 18.688-17.273 18.805-17.413.14-.163.382-.186.546-.047.164.14.187.381.047.544-.476.568-11.681 13.886-19.055 17.608-.039.023-.101.039-.164.039Z"/><path fill="#F6B69E" d="m168.055 235.538 5.571-4.592-14.029-13.257-5.985 5.09 14.443 12.759Z"/><path fill="#00BDD3" d="M178.136 229.182c-.374-.233-1.139-.124-1.927.093-.375.109-.765.233-1.108.358-.273.101-.523.202-.734.287-.312.132-.538.233-.616.272-.07.016-.117.085-.125.163-.008.023.008.055.024.078.023.039.062.07.109.078.788.209 1.599.341 2.419.404.398.054.811.023 1.193-.086.024-.008.039-.008.055-.015.219-.07.437-.164.632-.28.258-.21.398-.528.367-.863-.008-.194-.109-.388-.289-.489Zm-.078.505c.039.225-.062.451-.25.583-.148.124-.359.202-.632.256-.265.055-.585.07-.952.047-.429-.016-.928-.086-1.482-.187-.117-.023-.242-.046-.367-.07.663-.318 1.358-.559 2.076-.722.382-.086.764-.148 1.155-.187.117 0 .226.023.327.078.086.046.133.124.125.202Z"/><path fill="#00BDD3" d="M175.585 226.26c-.359.054-.687.272-.889.567-.063.093-.117.187-.156.295-.469 1.003-.227 2.518-.172 2.798.008.023.008.031.008.039.007.062.054.116.117.132.031.015.07.023.109.007.023 0 .047-.015.07-.038.133-.109.273-.257.429-.436.227-.264.461-.582.664-.932.483-.785.827-1.671.616-2.129-.086-.179-.289-.389-.796-.303Zm.468.458c.133.303-.125.995-.522 1.679-.258.435-.554.855-.851 1.165-.062-.489-.125-1.422.117-2.113.047-.156.117-.303.203-.42.133-.186.32-.334.538-.396l.11-.016c.327-.054.39.063.405.101Z"/><path fill="#0E1F3D" d="m172.901 230.62-6.991 3.512c-.281.132-.414.443-.328.73l2.06 6.512c.226.637.928.971 1.576.746.039-.016.086-.031.125-.047 11.977-4.188 15.645-7.156 16.901-7.832 3.566-1.935 1.56-4.453.234-4.142-5.969 1.422-7.975 1.057-10.557.388-1.381-.209-2.599-.077-3.02.133Z"/><path fill="#000" d="m159.597 217.697 7.108 6.27-5.992 5.09-7.101-6.271 5.985-5.089Z" opacity=".2"/><path fill="#00BDD3" d="m157.388 229.011 8.935-8.205-1.967-3.443-10.331 8.835 3.363 2.813Z"/><path fill="#fff" d="m157.388 229.011 8.935-8.205-1.967-3.443-10.331 8.835 3.363 2.813Z" opacity=".5"/><path fill="#00BDD3" d="m162.952 218.567-1.193 1.026-1.787 1.53-1.069.902-3.114 2.665-.6.505s-12.727-7.141-19.812-13.241c-4.853-4.18-5.29-5.734-5.797-5.345-6.843 5.182-27.099 23.101-38.577 32.425-.3745.039-.7413.078-1.1236.101-6.133.451-10.9551-.225-14.7004-1.647-.039-4.958 4.2213-16.535 4.5724-17.654 0 0 16.9398-16.769 44.3826-30.942.273-.14.554-.249.827-.365.359-.155.71-.303 1.076-.435 1.436-.544 2.841-.878 4.206-.948 1.225-.062 2.419.155 3.566.559.648.226 1.287.505 1.904.832.546.272 1.077.59 1.592.917.85.536 1.669 1.134 2.442 1.725 1.748 1.344 15.005 18.353 22.136 26.201v.008c.375.443.734.831 1.069 1.181Z"/><path fill="#000" d="m162.952 218.567-1.193 1.026-1.787 1.53-1.069.902-3.114 2.665-.6.505s-12.727-7.141-19.812-13.241c-4.853-4.18-5.29-5.734-5.797-5.345-6.843 5.182-27.099 23.101-38.577 32.425-.3745.039-.7413.078-1.1236.101-6.133.451-10.9551-.225-14.7004-1.647-.039-4.958 4.2213-16.535 4.5724-17.654 0 0 16.9398-16.769 44.3826-30.942.273-.14.554-.249.827-.365.359-.155.71-.303 1.076-.435 1.436-.544 2.841-.878 4.206-.948 1.225-.062 2.419.155 3.566.559.648.226 1.287.505 1.904.832.546.272 1.077.59 1.592.917.85.536 1.669 1.134 2.442 1.725 1.748 1.344 15.005 18.353 22.136 26.201v.008c.375.443.734.831 1.069 1.181Z" opacity=".1"/><path fill="#F6B69E" d="M72.5581 146.987c1.069 4.841 2.1926 11.905-1.1392 15.223 4.1355 7.257 9.1059 14.009 14.8097 20.125 7.3112-12.658.3823-20.483.3823-20.483-5.4775-1.165-5.3917-3.364-4.5334-7.156l-9.5194-7.709Z"/><path fill="#00BDD3" d="M68.0322 162.823c.4058-1.313 1.2407-2.448 2.3721-3.232 1.0924-.84 12.4532-.964 15.4104 0 1.7245.543 3.1914 1.693 4.1277 3.24l-21.9102-.008Z"/><path fill="#F6B69E" d="m120.444 182.094 2.941-1.337.149 4.771s-1.374 1.22-2.88 1.687c-1.443.443-2.816-.878-2.458-2.339.289-1.212 1.116-2.238 2.248-2.782Z"/><path fill="#F6B69E" d="m127.137 182.109-.156 1.749c-.039.544-.437.994-.967 1.111l-2.513.559-.148-4.771 2.552.039c.678-.007 1.225.529 1.232 1.205v.108Zm-43.9985 13.559c4.4163 2.168 9.8315 3.412 15.1451 2.518 6.2574-1.049 17.1584-7.304 21.9024-10.894l-1.6-2.37c-2.364.505-21.6835 10.28-34.1679 1.438-2.3252-1.648-11.4544-8.431-14.6848-8.291-5.2357.233-4.7831 5.695-2.5359 7.972 2.6451 2.657 12.3284 7.856 15.9411 9.627Z"/><g fill="#000" opacity=".2"><path d="M126.982 183.858c-.047.536-.437.994-.967 1.111l-2.497.559v.008s-1.373 1.22-2.872 1.686c-.156.047-.312.078-.46.078l-.008.008c-4.744 3.589-15.637 9.837-21.8944 10.886-5.3136.886-10.7288-.35-15.1451-2.526-3.6127-1.771-13.3116-6.97-15.9411-9.627-2.2472-2.277-2.6998-7.731 2.5359-7.972 3.2226-.14 12.3596 6.643 14.6848 8.291 11.907 8.43 30.0249-.07 33.7319-1.314.007-.054.015-.116.031-.171.148-.606.421-1.165.811-1.647.375-.474.874-.87 1.436-1.142l2.91-1.321.032-.008 2.528.031c.671-.007 1.225.536 1.225 1.212v.101l-.141 1.757Z" opacity=".2"/><path d="m123.376 180.757-.023.008v-.008h.023Z" opacity=".2"/></g><path fill="#00BDD3" d="M99.5009 170.632c6.6241 14.538-8.7391 18.688-1.701 42.527l-33.3959.801c.2263-12.775 4.7831-10.032-1.225-34.05-.5072-2.036-1.3577-7.871.8193-13.186.8505-2.067 2.3564-3.823 4.3305-4.888 2.4657-1.329 13.3271-.287 18.2819.039 5.3683-.746 11.907 6.939 12.8902 8.757Z"/><path fill="#fff" d="M99.5009 170.632c6.6241 14.538-8.7391 18.688-1.701 42.527l-33.3959.801c.2263-12.775 4.7831-10.032-1.225-34.05-.5072-2.036-1.3577-7.871.8193-13.186.8505-2.067 2.3564-3.823 4.3305-4.888 2.4657-1.329 13.3271-.287 18.2819.039 5.3683-.746 11.907 6.939 12.8902 8.757Z" opacity=".5"/><path fill="#0E1F3D" d="M93.1184 141.789c-.0937.637.1638 1.157.5618 1.212.3979.054.8037-.389.8895-1.003.0936-.613-.1639-1.157-.5618-1.212-.3979-.046-.8037.396-.8895 1.003Z"/><path fill="#0E1F3D" d="m93.8276 140.802 1.5294-.21c0-.008-.9207 1.033-1.5294.21Z"/><path fill="#A02724" d="M93.2194 142.628s.6555 2.782 1.623 4.204c-.9207.637-2.2472.093-2.2472.093l.6242-4.297Z"/><path fill="#0E1F3D" d="M95.3262 137.516c.1171-.047.2029-.156.2263-.28.0312-.202-.1093-.381-.3043-.412-1.1548-.203-2.3408.171-3.1679.995-.1483.14-.1561.365-.0235.513.1405.148.3668.155.515.023.0156-.015.0312-.031.0468-.054.6711-.638 1.6074-.918 2.5203-.754.0625.007.1327 0 .1873-.031Z"/><path fill="#F6B69E" d="M72.9087 136.761c-.632 7.576-1.0612 10.762 2.1848 15.168 4.8845 6.628 14.3727 5.758 17.2519-1.484 2.6061-6.512 3.2069-17.802-3.7375-21.858-4.947-2.922-11.3297-1.298-14.2713 3.621-.8271 1.383-1.3187 2.945-1.4279 4.553Z"/><path fill="#0E1F3D" d="M92.5171 149.987c-.5774-.482-1.0143-1.119-1.264-1.85-.0234-.077.0234-.163.1092-.194.078-.023.1639.023.1873.109.2263.629.6008 1.181 1.0846 1.624l-.1171.311Zm-25.0314-23.079c-2.9026 3.916-4.2213 4.934-.632 15.354 1.4435 4.188 5.6336 9.736 7.6701 10.241 3.6517.917 7.202-1.639 9.9486-4.211 2.4032-2.254 4.705-4.686 6.1642-7.631 1.4591-2.945 1.9975-6.472.7958-9.526-1.3108-3.318-5.9379-6.279-9.4023-7.009-4.073-.855-12.1333-.474-14.5444 2.782Z"/><path fill="#0E1F3D" d="M90.2375 141.307s.9128 1.562-.2419 2.727l.0234-2.082.2185-.645Z"/><path fill="#0E1F3D" d="M90.223 141.307s.3355 2.393-1.6776 3.287l1.0846-2.588.593-.699Zm-13.3969 10.31s-2.216 1.003-1.8961 3.171l1.6152-2.293.2809-.878Z"/><path fill="#0E1F3D" d="M76.9122 151.664s-1.6854 1.741-.5774 3.644l.6476-2.727-.0702-.917Zm16.3615-13.481c.7881-.808 1.5918-1.632 2.1692-2.603.5852-.971.9363-2.121.7647-3.232-.2263-1.446-1.3187-2.635-2.5905-3.365-1.2719-.723-2.731-1.049-4.1667-1.368-.7023-.155-1.4904-.303-2.1068.07-.6008.358-.8583 1.111-.8193 1.803.0313.692.3121 1.344.5618 1.989.991 2.526 1.6152 5.121 2.0912 7.778.2419 1.345.0546 2.23 1.3889 1.718.8895-.35 2.0287-2.091 2.7075-2.79Z"/><path fill="#F6B69E" d="M82.7722 141.921c-.078 1.756.5384 3.465 1.7244 4.763 1.584 1.717 3.5971.591 4.1745-1.539.5306-1.911.3277-5.105-1.7478-6.022-2.0755-.924-4.0418.661-4.1511 2.798Zm88.4988 97.113 6.023-5.851-11.657-14.6-7.288 4.281 12.922 16.17Z"/><path fill="#00BDD3" d="M183.443 231.381c-.671-.233-2.045.513-3.082 1.173-.266.163-.5.326-.703.466l-.015.008c-.039.031-.071.054-.102.078-.234.163-.405.287-.468.334-.078.039-.109.116-.094.194.024.078.094.132.172.14.718.031 1.436.008 2.154-.07.164-.016.32-.031.476-.054.522-.039 1.022-.21 1.451-.498.156-.101.304-.209.429-.334.226-.272.304-.645.195-.987-.047-.194-.203-.365-.413-.45Zm.046.559c.079.225.039.482-.124.668-.203.249-.609.451-1.186.591-.445.109-.984.186-1.616.218-.249.007-.515.023-.788.023.086-.07.172-.132.266-.194.062-.047.124-.086.187-.133.835-.582 1.756-1.041 2.731-1.359.117-.031.242-.031.367.007.078.024.14.094.163.179Z"/><path fill="#00BDD3" d="M180.102 228.902c-.367.14-.655.435-.796.793-.491 1.196.234 3.038.359 3.325 0 .008 0 .008.008.008 0 .016 0 .023.008.023.031.063.085.109.156.117.039.008.078 0 .117-.016.023-.007.054-.031.062-.046.008-.016.016-.016.024-.024.109-.139.226-.318.327-.528.578-1.08 1.116-2.883.64-3.504-.14-.179-.398-.35-.905-.148Zm-.195 3.675c-.211-.613-.585-1.919-.242-2.727.094-.225.258-.42.476-.536l.109-.055c.336-.132.422-.015.453.024.335.45-.187 2.292-.796 3.294Z"/><path fill="#000" d="m165.021 217.689 5.493 7.001-7.428 4.118-5.579-6.814 7.514-4.305Z" opacity=".2"/><path fill="#0E1F3D" d="m64.0991 211.426-.7725 3.015c-.117.241.1717.467.554.459l34.3947-.808c.3043-.016.5461-.164.5618-.35l-.8584-3.163c.0235-.202-.2497-.373-.5774-.365l-32.7482.956c-.2185-.023-.4291.078-.554.256Z"/><path fill="#00BDD3" d="m94.7025 214.449-.9051.093c-.1794-.008-.3277-.054-.3277-.163l-.0156-3.893c0-.109.1483-.218.3277-.241l.9051-.101c.1795.008.3278.055.3278.171l.0156 3.893c-.0078.109-.1483.218-.3278.241Zm-12.3129.156-.9052.093c-.1794-.008-.3199-.054-.3277-.163l-.0078-3.893c0-.109.1483-.218.3277-.241l.8974-.101c.1794.008.3277.054.3277.171l.0156 3.893c0 .124-.1483.217-.3277.241Z"/><path fill="#00BDD3" d="m82.3896 214.605-.9052.093c-.1794-.008-.3199-.054-.3277-.163l-.0078-3.893c0-.109.1483-.218.3277-.241l.8974-.101c.1794.008.3277.054.3277.171l.0156 3.893c0 .124-.1483.217-.3277.241Z"/><path fill="#00BDD3" d="m169.632 220.821-1.522.855-.007.007-2.614 1.469-2.349 1.313-.008.008-2.411 1.352v.008l-.92.52s-.211-.147-.578-.419c-.14-.101-.304-.218-.491-.358-.57-.427-1.374-1.025-2.302-1.764v-.007c-4.854-3.816-13.491-11.329-16.058-18.152-1.662 1.974-3.652 4.445-5.93 7.18-9.809 11.788-25.063 28.424-43.3917 30.592-.3745.054-.7412.085-1.1236.116-6.1251.529-10.9551-.085-14.716-1.46-9.5116-3.466-12.1645-11.796-11.5091-18.875v-.023c.0546-3.31.7101-9.216.7101-9.216l34.6989.039c4.8924-5.913 14.7004-15.175 24.7344-21.018.234-.148.476-.288.718-.412.297-.179.601-.334.898-.498 3.261-1.779 6.523-3.154 9.613-3.9.686-.163 1.365-.303 2.036-.404.702-.109 1.397-.171 2.076-.202v.007c4.751-.217 8.879 1.547 11.68 6.271l18.259 26.233.507.738Zm-18.726-35.906-38.343 1.577 1.124-24.298 38.342-1.577-1.123 24.298Z"/><path fill="#0E1F3D" d="m150.461 186.834-37.788 1.554c-1.069.047-1.904-.793-1.85-1.857l1.116-24.143c.047-1.072.96-1.973 2.029-2.02l37.789-1.554c1.069-.047 1.904.785 1.849 1.857l-1.116 24.143c-.047 1.072-.96 1.973-2.029 2.02Z"/><path fill="#00BDD3" d="m150.906 184.915-38.343 1.577 1.124-24.298 38.342-1.577-1.123 24.298Z"/><path fill="#fff" d="m150.906 184.915-38.343 1.577 1.124-24.298 38.342-1.577-1.123 24.298Z" opacity=".9"/><path fill="#fff" d="m127.295 159.824-6.336 28.206 2.52-.101 6.25-28.206-2.434.101Zm3.885-.156-6.336 28.207 5.002-.21 6.25-28.199-4.916.202Z" opacity=".1"/><path fill="#00BDD3" d="m138.46 187.137 12.765-.358c.219 1.477-.413 2.028-1.225 2.052l-4.081.101-2.723.062-4.237.117-26.287.761-.211-1.842 25.999-.893Z"/><path fill="#00BDD3" d="m138.46 187.136 12.765-.357c.219 1.476-.413 2.028-1.225 2.051l-4.081.101-2.723.062-4.237.117-32.537.995c-.375.007-.718-.195-.882-.537-.289-.606.141-1.32.819-1.344l32.101-1.088Z"/><path fill="#000" d="m138.46 187.136 12.765-.357c.219 1.476-.413 2.028-1.225 2.051l-4.081.101-2.723.062-4.237.117-32.537.995c-.375.007-.718-.195-.882-.537-.289-.606.141-1.32.819-1.344l32.101-1.088Z" opacity=".2"/><path fill="#000" d="m151.226 186.779.078.513c.117.792-.492 1.515-1.303 1.538l-4.081.101-7.577.272.125-2.067 12.758-.357Zm-66.1214-15.432s-1.8025 3.66 3.402 13.326l2.1769 3.94c.7179 1.298 5.4932-1.352 6.9133-3.784 0 0-9.1214-5.455-12.4922-13.482Z" opacity=".2"/><path fill="#F6B69E" d="m129.244 182.613 3.628-1.064-.585 5.587s-5.064 3.372-6.82.147l.703-1.802c.546-1.368 1.669-2.417 3.074-2.868Z"/><path fill="#F6B69E" d="m137.039 183.748-.453 2.013c-.132.622-.663 1.08-1.303 1.134l-3.019.234.585-5.587 2.965.466c.788.101 1.35.824 1.241 1.608 0 .047-.008.086-.016.132Zm-38.0069 8.315c2.5279 3.419 6.0859 6.27 10.2759 7.086 4.932.964 14.42-5.983 18.867-10.482-.226-1.896-.093-2.922-1.997-3.186 0 0-4.892 3.575-14.131 5.719-2.98.692-4.97-2.346-7.576-6.768-1.296-2.207-5.4935-11.244-7.0774-13.256-2.5359-3.232-9.7691-.917-6.8977 6.861 1.2094 3.272 6.4685 11.228 8.5362 14.026Z"/><path fill="#00BDD3" d="M96.3329 165.885c5.1341 4.693 7.6311 12.992 7.6311 12.992l-11.985 7.273s-8.7625-12.246-7.202-16.512c1.2328-3.31 3.5191-5.486 6.5231-5.673 1.8649-.108 3.6595.661 5.0328 1.92Zm-27.4811 49.194-.9051.023c-.1795-.023-.3199-.085-.3121-.202l.3277-3.877c.0156-.117.1639-.21.3433-.218l.9051-.023c.1795.023.32.093.3122.202l-.3278 3.885c-.0078.109-.1638.225-.3433.21Zm89.4742 12.922 11.673-5.812-.999-4.134-13.312 6.053 2.638 3.893Z"/><path fill="#fff" d="m158.326 228.001 11.673-5.812-.999-4.134-13.312 6.053 2.638 3.893Z" opacity=".5"/><path fill="#0E1F3D" d="m176.826 232.546-8.053 2.433c-.32.085-.523.388-.484.714l.968 7.273c.125.715.804 1.205 1.522 1.081.046-.008.093-.016.14-.032 13.452-2.23 17.892-4.685 19.335-5.175 4.128-1.39 2.482-4.429 1.015-4.335-6.586.404-8.638-.35-11.252-1.531-1.397-.49-2.708-.567-3.191-.428ZM68.5471 136.668c-2.4189.381-4.8143-1.469-5.5712-3.784-.7569-2.316-.1326-4.903 1.108-7.009.9129-1.554 6.8977-5.237 9.1214-1.088 4.4164 8.26-4.6582 11.881-4.6582 11.881Z"/><path fill="#00BDD3" d="m150.562 168.946-23.604 1.002.11-2.331 23.603-1.002-.109 2.331Z"/><path fill="#fff" d="m150.562 168.946-23.604 1.002.11-2.331 23.603-1.002-.109 2.331Z" opacity=".7"/><path fill="#00BDD3" d="m150.422 172.186-23.604.995.102-2.331 23.603-.995-.101 2.331Z"/><path fill="#fff" d="m150.422 172.186-23.604.995.102-2.331 23.603-.995-.101 2.331Z" opacity=".7"/><path fill="#00BDD3" d="m150.274 175.419-23.604 1.002.11-2.331 23.603-1.002-.109 2.331Z"/><path fill="#fff" d="m150.274 175.419-23.604 1.002.11-2.331 23.603-1.002-.109 2.331Z" opacity=".7"/><path fill="#00BDD3" d="m150.126 178.659-23.604.995.11-2.331 23.603-.995-.109 2.331Z"/><path fill="#fff" d="m150.126 178.659-23.604.995.11-2.331 23.603-.995-.109 2.331Z" opacity=".7"/><path fill="#00BDD3" d="m149.985 181.892-23.604 1.003.102-2.331 23.603-1.003-.101 2.331Z"/><path fill="#fff" d="m149.985 181.892-23.604 1.003.102-2.331 23.603-1.003-.101 2.331Z" opacity=".7"/><path fill="#00BDD3" d="m117.432 171.25-1.894.082.033.776 1.895-.082-.034-.776Z"/><path fill="#fff" d="m117.432 171.25-1.894.082.033.776 1.895-.082-.034-.776Z" opacity=".5"/><path fill="#00BDD3" d="m117.347 173.495-1.895.081.034.777 1.894-.082-.033-.776Z"/><path fill="#fff" d="m117.347 173.495-1.895.081.034.777 1.894-.082-.033-.776Z" opacity=".5"/><path fill="#00BDD3" d="m117.251 175.733-1.894.082.033.776 1.895-.081-.034-.777Z"/><path fill="#fff" d="m117.251 175.733-1.894.082.033.776 1.895-.081-.034-.777Z" opacity=".5"/><path fill="#00BDD3" d="m117.166 177.979-1.894.082.033.776 1.895-.082-.034-.776Z"/><path fill="#fff" d="m117.166 177.979-1.894.082.033.776 1.895-.082-.034-.776Z" opacity=".5"/><path fill="#00BDD3" d="m117.073 180.217-1.894.081.033.777 1.894-.082-.033-.776Z"/><path fill="#fff" d="m115.208 181.084.07-.785 1.888-.078-.07.777-1.888.086Z" opacity=".5"/><path fill="#00BDD3" d="m116.982 182.456-1.894.08.033.777 1.894-.08-.033-.777Z"/><path fill="#fff" d="m116.982 182.456-1.894.08.033.777 1.894-.08-.033-.777Z" opacity=".5"/><path fill="#00BDD3" d="m119.397 169.109-3.917 1.453.039-1.025 2.17-.35-2.146-.148.039-1.025 3.815 1.095Zm23.916-3.707-16.355.692.079-1.616 16.354-.692-.078 1.616Z"/><path fill="#fff" d="m143.313 165.402-16.355.692.079-1.616 16.354-.692-.078 1.616Z" opacity=".7"/><path fill="#00BDD3" d="m121.247 166.242-2.395.101.967-.614.265.249.289-.257.874.521Zm-1.522-.584-.967.614.07-1.422.897.808Zm1.678-.854-.078 1.352-.882-.513.96-.839Z"/><path fill="#fff" d="m120.118 165.397-.054.057.006.005.054-.056-.006-.006Z"/><path fill="#fff" d="m120.072 165.42-.006.005.053.057.006-.006-.053-.056Z"/><path fill="#00BDD3" d="m121.402 164.672-1.03.932-.289.248-.265-.24-.897-.808-.07-.07 2.551-.062Zm-3.962.249-1.894.081.01.232 1.894-.08-.01-.233Zm.002.589-1.894.081.01.233 1.894-.081-.01-.233Zm-.002.601-1.894.081.01.232 1.894-.08-.01-.233ZM227.365 48.0785h-11.368c-1.03 0-1.865-.8314-1.865-1.8571s.835-1.8571 1.865-1.8571h11.368c1.03 0 1.865.8314 1.865 1.8571s-.835 1.8571-1.865 1.8571Z"/><path fill="#fff" d="M227.365 48.0785h-11.368c-1.03 0-1.865-.8314-1.865-1.8571s.835-1.8571 1.865-1.8571h11.368c1.03 0 1.865.8314 1.865 1.8571s-.835 1.8571-1.865 1.8571Z" opacity=".7"/><path fill="#00BDD3" d="m269.072 86.2382-43.587 79.8788c-.562 1.026-1.857 1.407-2.887.847l-74.165-40.134c-1.03-.559-1.412-1.849-.851-2.875l56.687-103.8968c.562-1.0257 1.858-1.4064 2.888-.847l49.976 27.0408 11.939 39.9862Z"/><path fill="#fff" d="m269.072 86.2382-43.587 79.8788c-.562 1.026-1.857 1.407-2.887.847l-74.165-40.134c-1.03-.559-1.412-1.849-.851-2.875l56.687-103.8968c.562-1.0257 1.858-1.4064 2.888-.847l49.976 27.0408 11.939 39.9862Z" opacity=".2"/><path fill="#00BDD3" d="m244.619 104.167-55.391-29.7587-1.853 3.4193 55.391 29.7584 1.853-3.419Zm-7.57 13.971-55.391-29.7585-1.852 3.4193 55.391 29.7582 1.852-3.419Zm-7.567 13.971-55.391-29.758-1.852 3.419 55.391 29.758 1.852-3.419Zm27.714-85.8882-13.14 24.0958c-.562 1.0257-.179 2.3156.851 2.8751l24.118 13.0541-11.829-40.025Z"/><path fill="#fff" d="m257.196 46.2208-13.14 24.0958c-.562 1.0257-.179 2.3156.851 2.8751l24.118 13.0541-11.829-40.025Z" opacity=".7"/><path fill="#00BDD3" d="m280.432 83.5492-43.586 79.8788c-.562 1.026-1.857 1.407-2.887.847l-74.166-40.134c-1.03-.559-1.412-1.849-.85-2.875L215.63 17.3692c.562-1.0256 1.857-1.4064 2.887-.8469l49.977 27.0408 11.938 39.9861Z"/><path fill="#fff" d="m280.432 83.5492-43.586 79.8788c-.562 1.026-1.857 1.407-2.887.847l-74.166-40.134c-1.03-.559-1.412-1.849-.85-2.875L215.63 17.3692c.562-1.0256 1.857-1.4064 2.887-.8469l49.977 27.0408 11.938 39.9861Z" opacity=".5"/><path fill="#00BDD3" d="m254.504 100.683-52.435-28.1672c-.819-.4352-1.834-.1321-2.278.676l-.258.474c-.437.8159-.133 1.826.679 2.2689l52.435 28.1673c.819.435 1.833.132 2.278-.676l.257-.474c.445-.816.141-1.834-.678-2.269Zm-7.569 13.971L194.5 86.4865c-.819-.4352-1.833-.1321-2.278.676l-.258.474c-.437.8159-.132 1.826.679 2.2689l52.435 28.1676c.819.435 1.833.132 2.278-.676l.258-.474c.444-.816.14-1.826-.679-2.269Zm-7.569 13.971-52.434-28.167c-.819-.436-1.834-.133-2.279.676l-.257.474c-.437.815-.133 1.826.679 2.269l52.434 28.167c.82.435 1.834.132 2.279-.676l.257-.474c.445-.816.141-1.826-.679-2.269Zm29.199-85.0928L255.417 67.628c-.562 1.0257-.18 2.3156.85 2.8751l24.119 13.0541-11.821-40.025Z"/><path fill="#fff" d="M268.565 43.5322 255.417 67.628c-.562 1.0257-.18 2.3156.85 2.8751l24.119 13.0541-11.821-40.025Z" opacity=".7"/><path fill="#F4E041" d="m265.552 6.91113 3.667 16.21667c-13.888 3.7997-26.35 17.4833-35.315 30.4209-3.535 5.1051-6.531 11.0339-8.77 17.3046 0 0 28.004-25.2303 43.446-26.7067l-.734 26.8077s16.011-31.0581 47.113-42.4261c-.008-.0078-26.053-18.68765-49.407-21.61707Z"/><path fill="#00BDD3" d="m76.616 184.083 7.0771 80.555H72.2854l-7.6155-86.686h5.2279c3.5034 0 6.4139 2.658 6.7182 6.131Z"/><path fill="#000" d="m76.6852 184.806 7.0147 79.832H72.2923l-7.6155-86.686h4.4944c3.9091 0 7.1707 2.976 7.514 6.854Z" opacity=".2"/><path fill="#00BDD3" d="m69.2032 183.197 7.1551 81.441H8.44297L1.37366 184.2c-.29651-3.357 2.36424-6.248 5.75064-6.248h56.3204c3.0041 0 5.501 2.277 5.7585 5.245Z"/><path fill="#fff" d="m69.2803 184.083 7.0771 80.555H8.44207l-6.97568-79.382c-.34332-3.924 2.76218-7.304 6.71819-7.304H62.5543c3.5034 0 6.4217 2.658 6.726 6.131Z" opacity=".2"/><path fill="#00BDD3" d="M188.727 264.638H8.75586l-1.9585-22.34H179.559c3.987 0 7.498 3.217 7.841 7.188l1.327 15.152Z"/><path fill="#fff" d="M188.727 264.638H8.75586l-1.9585-22.34H179.559c3.987 0 7.498 3.217 7.841 7.188l1.327 15.152Z" opacity=".2"/><path fill="#00BDD3" d="M196.981 273.193H6.64042c-2.46567 0-4.47099-1.989-4.47099-4.452 0-2.455 1.99752-4.452 4.47099-4.452H196.981c2.466 0 4.471 1.989 4.471 4.452 0 2.455-2.005 4.452-4.471 4.452Z"/><path fill="#000" d="M196.982 273.193H86.4866c-2.4657 0-4.471-1.989-4.471-4.452 0-2.455 1.9975-4.452 4.471-4.452H196.982c2.465 0 4.471 1.989 4.471 4.452 0 2.455-2.006 4.452-4.471 4.452Z" opacity=".2"/><path fill="#263238" d="m9.1377 273.193 2.255 7.646h4.51l2.4813-7.646H9.1377Z"/><path fill="#fff" d="m9.1377 273.193 2.255 7.646h4.51l2.4813-7.646H9.1377Z" opacity=".5"/><path fill="#263238" d="m73.7676 273.193 2.255 7.646h4.51l2.4813-7.646h-9.2463Z"/><path fill="#fff" d="m73.7676 273.193 2.255 7.646h4.51l2.4813-7.646h-9.2463Z" opacity=".5"/><path fill="#263238" d="m123.238 273.193 2.255 7.646h4.51l2.481-7.646h-9.246Z"/><path fill="#fff" d="m123.238 273.193 2.255 7.646h4.51l2.481-7.646h-9.246Z" opacity=".5"/><path fill="#263238" d="m187.868 273.193 2.255 7.646h4.51l2.481-7.646h-9.246Z"/><path fill="#fff" d="m187.868 273.193 2.255 7.646h4.51l2.481-7.646h-9.246Z" opacity=".5"/><path fill="#EA5924" d="M261.432 150.254c0 17.215-13.964 31.171-31.19 31.171-17.225 0-31.189-13.956-31.189-31.171 0-17.216 13.964-31.172 31.189-31.172 17.226 0 31.19 13.956 31.19 31.172Z"/><path fill="#fff" d="m226.212 156.733-5.11-5.107c-.57-.57-1.475-.57-2.045 0-.569.569-.569 1.473 0 2.043l6.119 6.114c.569.569 1.489.569 2.059 0l15.478-15.454c.569-.569.569-1.474 0-2.043-.57-.569-1.475-.569-2.045 0l-14.456 14.447Z"/></svg>